<svg width="485" height="486" viewBox="0 0 485 486" fill="none" xmlns="http://www.w3.org/2000/svg">
<path d="M217.329 486C362.802 486 481.235 369.964 485 225.175H305.982H300.163L298.452 219.698L284.76 173.147L238.893 338.131L223.832 337.446L179.335 72.8554L124.226 285.76L120.461 299.794L110.877 288.841L55.0832 225.175H-50C-46.5771 369.964 71.8554 486 217.329 486ZM484.658 209.772C480.208 66.0096 362.118 -49 217.329 -49C72.54 -49 -45.2079 66.0096 -50 209.772H58.5061H61.929L64.325 212.51L112.93 267.961L173.516 34.1766L188.576 34.8612L233.417 300.821L277.23 143.025H291.948L311.459 209.772H484.658Z" fill="#F5F5F5"/>
</svg>
